<svg xmlns="http://www.w3.org/2000/svg" viewBox="0 0 32 32" width="32" height="32">
  <!-- Eagle Command Favicon -->
  <defs>
    <linearGradient id="faviconGradient" x1="0%" y1="0%" x2="100%" y2="100%">
      <stop offset="0%" style="stop-color:#1a1a1a;stop-opacity:1" />
      <stop offset="100%" style="stop-color:#333333;stop-opacity:1" />
    </linearGradient>
  </defs>
  
  <!-- Background -->
  <rect width="32" height="32" rx="6" fill="#f5f5f5"/>
  
  <!-- Simplified eagle head -->
  <path d="M16 6
           C 13 6, 10 8, 9 11
           C 8 10, 6 10, 5 12
           C 4 14, 5 16, 7 17
           C 6 19, 7 22, 9 23
           C 8 25, 11 27, 13 26
           C 14 28, 16 29, 16 29
           C 16 29, 18 28, 19 26
           C 21 27, 24 25, 23 23
           C 25 22, 26 19, 25 17
           C 27 16, 28 14, 27 12
           C 26 10, 24 10, 23 11
           C 22 8, 19 6, 16 6 Z
           M 16 10
           C 17 10, 18 11, 18 13
           C 18 15, 17 16, 16 16
           C 15 16, 14 15, 14 13
           C 14 11, 15 10, 16 10 Z"
        fill="url(#faviconGradient)"/>
  
  <!-- Command clock symbol -->
  <circle cx="16" cy="16" r="4" fill="none" stroke="#1a1a1a" stroke-width="1.5"/>
  <path d="M 16 13.5 L 16 16 L 18 16" fill="none" stroke="#1a1a1a" stroke-width="1.5" stroke-linecap="round" stroke-linejoin="round"/>
</svg>